<mxfile host="65bd71144e">
    <diagram id="0rA-hQ8AD6WAOeK6nuZK" name="Logical_Model">
        <mxGraphModel dx="2348" dy="2073" grid="0" gridSize="10" guides="1" tooltips="1" connect="1" arrows="1" fold="1" page="1" pageScale="1" pageWidth="850" pageHeight="1100" background="none" math="0" shadow="0">
            <root>
                <mxCell id="0"/>
                <mxCell id="1" parent="0"/>
                <mxCell id="15" value="fact_Sales" style="swimlane;fontStyle=0;childLayout=stackLayout;horizontal=1;startSize=26;horizontalStack=0;resizeParent=1;resizeParentMax=0;resizeLast=0;collapsible=1;marginBottom=0;align=center;fontSize=14;fillColor=#f0a30a;fontColor=#000000;strokeColor=#BD7000;swimlaneFillColor=default;gradientColor=default;" parent="1" vertex="1">
                    <mxGeometry x="-300" y="80" width="160" height="528" as="geometry">
                        <mxRectangle x="-140" y="310" width="110" height="30" as="alternateBounds"/>
                    </mxGeometry>
                </mxCell>
                <mxCell id="16" value="order_id" style="text;strokeColor=none;fillColor=none;spacingLeft=4;spacingRight=4;overflow=hidden;rotatable=0;points=[[0,0.5],[1,0.5]];portConstraint=eastwest;fontSize=12;" parent="15" vertex="1">
                    <mxGeometry y="26" width="160" height="30" as="geometry"/>
                </mxCell>
                <mxCell id="17" value="product_id" style="text;strokeColor=none;fillColor=none;spacingLeft=4;spacingRight=4;overflow=hidden;rotatable=0;points=[[0,0.5],[1,0.5]];portConstraint=eastwest;fontSize=12;" parent="15" vertex="1">
                    <mxGeometry y="56" width="160" height="30" as="geometry"/>
                </mxCell>
                <mxCell id="18" value="customer_id" style="text;strokeColor=none;fillColor=none;spacingLeft=4;spacingRight=4;overflow=hidden;rotatable=0;points=[[0,0.5],[1,0.5]];portConstraint=eastwest;fontSize=12;strokeWidth=1;" parent="15" vertex="1">
                    <mxGeometry y="86" width="160" height="34" as="geometry"/>
                </mxCell>
                <mxCell id="19" value="employee_id" style="text;strokeColor=none;fillColor=none;spacingLeft=4;spacingRight=4;overflow=hidden;rotatable=0;points=[[0,0.5],[1,0.5]];portConstraint=eastwest;fontSize=12;strokeWidth=1;" parent="15" vertex="1">
                    <mxGeometry y="120" width="160" height="34" as="geometry"/>
                </mxCell>
                <mxCell id="24" value="shipper_id" style="text;strokeColor=none;fillColor=none;spacingLeft=4;spacingRight=4;overflow=hidden;rotatable=0;points=[[0,0.5],[1,0.5]];portConstraint=eastwest;fontSize=12;strokeWidth=1;" parent="15" vertex="1">
                    <mxGeometry y="154" width="160" height="34" as="geometry"/>
                </mxCell>
                <mxCell id="23" value="quantity" style="text;strokeColor=none;fillColor=none;spacingLeft=4;spacingRight=4;overflow=hidden;rotatable=0;points=[[0,0.5],[1,0.5]];portConstraint=eastwest;fontSize=12;strokeWidth=1;" parent="15" vertex="1">
                    <mxGeometry y="188" width="160" height="34" as="geometry"/>
                </mxCell>
                <mxCell id="22" value="unit_price" style="text;strokeColor=none;fillColor=none;spacingLeft=4;spacingRight=4;overflow=hidden;rotatable=0;points=[[0,0.5],[1,0.5]];portConstraint=eastwest;fontSize=12;strokeWidth=1;" parent="15" vertex="1">
                    <mxGeometry y="222" width="160" height="34" as="geometry"/>
                </mxCell>
                <mxCell id="21" value="discount" style="text;strokeColor=none;fillColor=none;spacingLeft=4;spacingRight=4;overflow=hidden;rotatable=0;points=[[0,0.5],[1,0.5]];portConstraint=eastwest;fontSize=12;strokeWidth=1;" parent="15" vertex="1">
                    <mxGeometry y="256" width="160" height="34" as="geometry"/>
                </mxCell>
                <mxCell id="20" value="status_id" style="text;strokeColor=none;fillColor=none;spacingLeft=4;spacingRight=4;overflow=hidden;rotatable=0;points=[[0,0.5],[1,0.5]];portConstraint=eastwest;fontSize=12;strokeWidth=1;" parent="15" vertex="1">
                    <mxGeometry y="290" width="160" height="34" as="geometry"/>
                </mxCell>
                <mxCell id="27" value="date_allocated" style="text;strokeColor=none;fillColor=none;spacingLeft=4;spacingRight=4;overflow=hidden;rotatable=0;points=[[0,0.5],[1,0.5]];portConstraint=eastwest;fontSize=12;strokeWidth=1;" parent="15" vertex="1">
                    <mxGeometry y="324" width="160" height="34" as="geometry"/>
                </mxCell>
                <mxCell id="26" value="purchase_order_id" style="text;strokeColor=none;fillColor=none;spacingLeft=4;spacingRight=4;overflow=hidden;rotatable=0;points=[[0,0.5],[1,0.5]];portConstraint=eastwest;fontSize=12;strokeWidth=1;" parent="15" vertex="1">
                    <mxGeometry y="358" width="160" height="34" as="geometry"/>
                </mxCell>
                <mxCell id="25" value="inventory_id" style="text;strokeColor=none;fillColor=none;spacingLeft=4;spacingRight=4;overflow=hidden;rotatable=0;points=[[0,0.5],[1,0.5]];portConstraint=eastwest;fontSize=12;strokeWidth=1;" parent="15" vertex="1">
                    <mxGeometry y="392" width="160" height="34" as="geometry"/>
                </mxCell>
                <mxCell id="43" value="order_date" style="text;strokeColor=none;fillColor=none;spacingLeft=4;spacingRight=4;overflow=hidden;rotatable=0;points=[[0,0.5],[1,0.5]];portConstraint=eastwest;fontSize=12;strokeWidth=1;" parent="15" vertex="1">
                    <mxGeometry y="426" width="160" height="34" as="geometry"/>
                </mxCell>
                <mxCell id="42" value="shipped_date" style="text;strokeColor=none;fillColor=none;spacingLeft=4;spacingRight=4;overflow=hidden;rotatable=0;points=[[0,0.5],[1,0.5]];portConstraint=eastwest;fontSize=12;strokeWidth=1;" parent="15" vertex="1">
                    <mxGeometry y="460" width="160" height="34" as="geometry"/>
                </mxCell>
                <mxCell id="41" value="paid_date" style="text;strokeColor=none;fillColor=none;spacingLeft=4;spacingRight=4;overflow=hidden;rotatable=0;points=[[0,0.5],[1,0.5]];portConstraint=eastwest;fontSize=12;strokeWidth=1;" parent="15" vertex="1">
                    <mxGeometry y="494" width="160" height="34" as="geometry"/>
                </mxCell>
                <mxCell id="44" value="dim_customer" style="swimlane;fontStyle=0;childLayout=stackLayout;horizontal=1;startSize=26;horizontalStack=0;resizeParent=1;resizeParentMax=0;resizeLast=0;collapsible=1;marginBottom=0;align=center;fontSize=14;fillColor=#f0a30a;fontColor=#000000;strokeColor=#BD7000;swimlaneFillColor=default;gradientColor=default;" parent="1" vertex="1">
                    <mxGeometry x="-10" y="-240" width="160" height="630" as="geometry">
                        <mxRectangle x="-140" y="310" width="110" height="30" as="alternateBounds"/>
                    </mxGeometry>
                </mxCell>
                <mxCell id="45" value="unique_customer_id" style="text;strokeColor=none;fillColor=none;spacingLeft=4;spacingRight=4;overflow=hidden;rotatable=0;points=[[0,0.5],[1,0.5]];portConstraint=eastwest;fontSize=12;" parent="44" vertex="1">
                    <mxGeometry y="26" width="160" height="30" as="geometry"/>
                </mxCell>
                <mxCell id="46" value="company" style="text;strokeColor=none;fillColor=none;spacingLeft=4;spacingRight=4;overflow=hidden;rotatable=0;points=[[0,0.5],[1,0.5]];portConstraint=eastwest;fontSize=12;" parent="44" vertex="1">
                    <mxGeometry y="56" width="160" height="30" as="geometry"/>
                </mxCell>
                <mxCell id="47" value="last_name" style="text;strokeColor=none;fillColor=none;spacingLeft=4;spacingRight=4;overflow=hidden;rotatable=0;points=[[0,0.5],[1,0.5]];portConstraint=eastwest;fontSize=12;strokeWidth=1;" parent="44" vertex="1">
                    <mxGeometry y="86" width="160" height="34" as="geometry"/>
                </mxCell>
                <mxCell id="48" value="first_name" style="text;strokeColor=none;fillColor=none;spacingLeft=4;spacingRight=4;overflow=hidden;rotatable=0;points=[[0,0.5],[1,0.5]];portConstraint=eastwest;fontSize=12;strokeWidth=1;" parent="44" vertex="1">
                    <mxGeometry y="120" width="160" height="34" as="geometry"/>
                </mxCell>
                <mxCell id="49" value="email_address" style="text;strokeColor=none;fillColor=none;spacingLeft=4;spacingRight=4;overflow=hidden;rotatable=0;points=[[0,0.5],[1,0.5]];portConstraint=eastwest;fontSize=12;strokeWidth=1;" parent="44" vertex="1">
                    <mxGeometry y="154" width="160" height="34" as="geometry"/>
                </mxCell>
                <mxCell id="50" value="job_title" style="text;strokeColor=none;fillColor=none;spacingLeft=4;spacingRight=4;overflow=hidden;rotatable=0;points=[[0,0.5],[1,0.5]];portConstraint=eastwest;fontSize=12;strokeWidth=1;" parent="44" vertex="1">
                    <mxGeometry y="188" width="160" height="34" as="geometry"/>
                </mxCell>
                <mxCell id="51" value="business_phone" style="text;strokeColor=none;fillColor=none;spacingLeft=4;spacingRight=4;overflow=hidden;rotatable=0;points=[[0,0.5],[1,0.5]];portConstraint=eastwest;fontSize=12;strokeWidth=1;" parent="44" vertex="1">
                    <mxGeometry y="222" width="160" height="34" as="geometry"/>
                </mxCell>
                <mxCell id="52" value="home_phone" style="text;strokeColor=none;fillColor=none;spacingLeft=4;spacingRight=4;overflow=hidden;rotatable=0;points=[[0,0.5],[1,0.5]];portConstraint=eastwest;fontSize=12;strokeWidth=1;" parent="44" vertex="1">
                    <mxGeometry y="256" width="160" height="34" as="geometry"/>
                </mxCell>
                <mxCell id="53" value="mobile_phone" style="text;strokeColor=none;fillColor=none;spacingLeft=4;spacingRight=4;overflow=hidden;rotatable=0;points=[[0,0.5],[1,0.5]];portConstraint=eastwest;fontSize=12;strokeWidth=1;" parent="44" vertex="1">
                    <mxGeometry y="290" width="160" height="34" as="geometry"/>
                </mxCell>
                <mxCell id="54" value="fax_number" style="text;strokeColor=none;fillColor=none;spacingLeft=4;spacingRight=4;overflow=hidden;rotatable=0;points=[[0,0.5],[1,0.5]];portConstraint=eastwest;fontSize=12;strokeWidth=1;" parent="44" vertex="1">
                    <mxGeometry y="324" width="160" height="34" as="geometry"/>
                </mxCell>
                <mxCell id="55" value="address" style="text;strokeColor=none;fillColor=none;spacingLeft=4;spacingRight=4;overflow=hidden;rotatable=0;points=[[0,0.5],[1,0.5]];portConstraint=eastwest;fontSize=12;strokeWidth=1;" parent="44" vertex="1">
                    <mxGeometry y="358" width="160" height="34" as="geometry"/>
                </mxCell>
                <mxCell id="56" value="city" style="text;strokeColor=none;fillColor=none;spacingLeft=4;spacingRight=4;overflow=hidden;rotatable=0;points=[[0,0.5],[1,0.5]];portConstraint=eastwest;fontSize=12;strokeWidth=1;" parent="44" vertex="1">
                    <mxGeometry y="392" width="160" height="34" as="geometry"/>
                </mxCell>
                <mxCell id="57" value="state_province" style="text;strokeColor=none;fillColor=none;spacingLeft=4;spacingRight=4;overflow=hidden;rotatable=0;points=[[0,0.5],[1,0.5]];portConstraint=eastwest;fontSize=12;strokeWidth=1;" parent="44" vertex="1">
                    <mxGeometry y="426" width="160" height="34" as="geometry"/>
                </mxCell>
                <mxCell id="58" value="zip_postal_code" style="text;strokeColor=none;fillColor=none;spacingLeft=4;spacingRight=4;overflow=hidden;rotatable=0;points=[[0,0.5],[1,0.5]];portConstraint=eastwest;fontSize=12;strokeWidth=1;" parent="44" vertex="1">
                    <mxGeometry y="460" width="160" height="34" as="geometry"/>
                </mxCell>
                <mxCell id="59" value="country_region" style="text;strokeColor=none;fillColor=none;spacingLeft=4;spacingRight=4;overflow=hidden;rotatable=0;points=[[0,0.5],[1,0.5]];portConstraint=eastwest;fontSize=12;strokeWidth=1;" parent="44" vertex="1">
                    <mxGeometry y="494" width="160" height="34" as="geometry"/>
                </mxCell>
                <mxCell id="60" value="web_page" style="text;strokeColor=none;fillColor=none;spacingLeft=4;spacingRight=4;overflow=hidden;rotatable=0;points=[[0,0.5],[1,0.5]];portConstraint=eastwest;fontSize=12;strokeWidth=1;" parent="44" vertex="1">
                    <mxGeometry y="528" width="160" height="34" as="geometry"/>
                </mxCell>
                <mxCell id="62" value="notes" style="text;strokeColor=none;fillColor=none;spacingLeft=4;spacingRight=4;overflow=hidden;rotatable=0;points=[[0,0.5],[1,0.5]];portConstraint=eastwest;fontSize=12;strokeWidth=1;" parent="44" vertex="1">
                    <mxGeometry y="562" width="160" height="34" as="geometry"/>
                </mxCell>
                <mxCell id="61" value="attachments" style="text;strokeColor=none;fillColor=none;spacingLeft=4;spacingRight=4;overflow=hidden;rotatable=0;points=[[0,0.5],[1,0.5]];portConstraint=eastwest;fontSize=12;strokeWidth=1;" parent="44" vertex="1">
                    <mxGeometry y="596" width="160" height="34" as="geometry"/>
                </mxCell>
                <mxCell id="64" style="edgeStyle=orthogonalEdgeStyle;html=1;exitX=0;exitY=0.5;exitDx=0;exitDy=0;endArrow=ERmany;endFill=0;startArrow=ERone;startFill=0;" parent="1" source="45" target="18" edge="1">
                    <mxGeometry relative="1" as="geometry"/>
                </mxCell>
                <mxCell id="84" style="edgeStyle=orthogonalEdgeStyle;html=1;exitX=0.5;exitY=0;exitDx=0;exitDy=0;entryX=0.75;entryY=0;entryDx=0;entryDy=0;startArrow=ERone;startFill=0;endArrow=ERmany;endFill=0;" parent="1" source="15" target="15" edge="1">
                    <mxGeometry relative="1" as="geometry"/>
                </mxCell>
                <mxCell id="87" value="dim_date" style="swimlane;fontStyle=0;childLayout=stackLayout;horizontal=1;startSize=30;horizontalStack=0;resizeParent=1;resizeParentMax=0;resizeLast=0;collapsible=1;marginBottom=0;align=center;fontSize=14;fillColor=#f0a30a;fontColor=#000000;strokeColor=#BD7000;swimlaneFillColor=default;gradientColor=default;" parent="1" vertex="1">
                    <mxGeometry x="-540" y="690" width="160" height="462" as="geometry">
                        <mxRectangle x="-140" y="310" width="110" height="30" as="alternateBounds"/>
                    </mxGeometry>
                </mxCell>
                <mxCell id="88" value="unique_product_id" style="text;strokeColor=none;fillColor=none;spacingLeft=4;spacingRight=4;overflow=hidden;rotatable=0;points=[[0,0.5],[1,0.5]];portConstraint=eastwest;fontSize=12;" parent="87" vertex="1">
                    <mxGeometry y="30" width="160" height="30" as="geometry"/>
                </mxCell>
                <mxCell id="89" value="supplier_company" style="text;strokeColor=none;fillColor=none;spacingLeft=4;spacingRight=4;overflow=hidden;rotatable=0;points=[[0,0.5],[1,0.5]];portConstraint=eastwest;fontSize=12;" parent="87" vertex="1">
                    <mxGeometry y="60" width="160" height="30" as="geometry"/>
                </mxCell>
                <mxCell id="90" value="product_code" style="text;strokeColor=none;fillColor=none;spacingLeft=4;spacingRight=4;overflow=hidden;rotatable=0;points=[[0,0.5],[1,0.5]];portConstraint=eastwest;fontSize=12;strokeWidth=1;" parent="87" vertex="1">
                    <mxGeometry y="90" width="160" height="34" as="geometry"/>
                </mxCell>
                <mxCell id="91" value="product_name" style="text;strokeColor=none;fillColor=none;spacingLeft=4;spacingRight=4;overflow=hidden;rotatable=0;points=[[0,0.5],[1,0.5]];portConstraint=eastwest;fontSize=12;strokeWidth=1;" parent="87" vertex="1">
                    <mxGeometry y="124" width="160" height="34" as="geometry"/>
                </mxCell>
                <mxCell id="92" value="description" style="text;strokeColor=none;fillColor=none;spacingLeft=4;spacingRight=4;overflow=hidden;rotatable=0;points=[[0,0.5],[1,0.5]];portConstraint=eastwest;fontSize=12;strokeWidth=1;" parent="87" vertex="1">
                    <mxGeometry y="158" width="160" height="32" as="geometry"/>
                </mxCell>
                <mxCell id="93" value="standard_cost" style="text;strokeColor=none;fillColor=none;spacingLeft=4;spacingRight=4;overflow=hidden;rotatable=0;points=[[0,0.5],[1,0.5]];portConstraint=eastwest;fontSize=12;strokeWidth=1;" parent="87" vertex="1">
                    <mxGeometry y="190" width="160" height="34" as="geometry"/>
                </mxCell>
                <mxCell id="94" value="list_price" style="text;strokeColor=none;fillColor=none;spacingLeft=4;spacingRight=4;overflow=hidden;rotatable=0;points=[[0,0.5],[1,0.5]];portConstraint=eastwest;fontSize=12;strokeWidth=1;" parent="87" vertex="1">
                    <mxGeometry y="224" width="160" height="34" as="geometry"/>
                </mxCell>
                <mxCell id="95" value="reorder_level" style="text;strokeColor=none;fillColor=none;spacingLeft=4;spacingRight=4;overflow=hidden;rotatable=0;points=[[0,0.5],[1,0.5]];portConstraint=eastwest;fontSize=12;strokeWidth=1;" parent="87" vertex="1">
                    <mxGeometry y="258" width="160" height="34" as="geometry"/>
                </mxCell>
                <mxCell id="96" value="target_level" style="text;strokeColor=none;fillColor=none;spacingLeft=4;spacingRight=4;overflow=hidden;rotatable=0;points=[[0,0.5],[1,0.5]];portConstraint=eastwest;fontSize=12;strokeWidth=1;" parent="87" vertex="1">
                    <mxGeometry y="292" width="160" height="34" as="geometry"/>
                </mxCell>
                <mxCell id="97" value="quantity_per_unit" style="text;strokeColor=none;fillColor=none;spacingLeft=4;spacingRight=4;overflow=hidden;rotatable=0;points=[[0,0.5],[1,0.5]];portConstraint=eastwest;fontSize=12;strokeWidth=1;" parent="87" vertex="1">
                    <mxGeometry y="326" width="160" height="34" as="geometry"/>
                </mxCell>
                <mxCell id="98" value="discontinued" style="text;strokeColor=none;fillColor=none;spacingLeft=4;spacingRight=4;overflow=hidden;rotatable=0;points=[[0,0.5],[1,0.5]];portConstraint=eastwest;fontSize=12;strokeWidth=1;" parent="87" vertex="1">
                    <mxGeometry y="360" width="160" height="34" as="geometry"/>
                </mxCell>
                <mxCell id="100" value="minimum_reorder_quantity" style="text;strokeColor=none;fillColor=none;spacingLeft=4;spacingRight=4;overflow=hidden;rotatable=0;points=[[0,0.5],[1,0.5]];portConstraint=eastwest;fontSize=12;strokeWidth=1;" parent="87" vertex="1">
                    <mxGeometry y="394" width="160" height="34" as="geometry"/>
                </mxCell>
                <mxCell id="101" value="category" style="text;strokeColor=none;fillColor=none;spacingLeft=4;spacingRight=4;overflow=hidden;rotatable=0;points=[[0,0.5],[1,0.5]];portConstraint=eastwest;fontSize=12;strokeWidth=1;" parent="87" vertex="1">
                    <mxGeometry y="428" width="160" height="34" as="geometry"/>
                </mxCell>
                <mxCell id="99" style="edgeStyle=orthogonalEdgeStyle;html=1;exitX=1;exitY=0.5;exitDx=0;exitDy=0;startArrow=ERone;startFill=0;endArrow=ERmany;endFill=0;" parent="1" source="88" target="43" edge="1">
                    <mxGeometry relative="1" as="geometry"/>
                </mxCell>
                <mxCell id="123" value="dim_employee" style="swimlane;fontStyle=0;childLayout=stackLayout;horizontal=1;startSize=26;horizontalStack=0;resizeParent=1;resizeParentMax=0;resizeLast=0;collapsible=1;marginBottom=0;align=center;fontSize=14;fillColor=#f0a30a;fontColor=#000000;strokeColor=#BD7000;swimlaneFillColor=default;gradientColor=default;" parent="1" vertex="1">
                    <mxGeometry y="540" width="160" height="630" as="geometry">
                        <mxRectangle x="-140" y="310" width="110" height="30" as="alternateBounds"/>
                    </mxGeometry>
                </mxCell>
                <mxCell id="124" value="unique_employee_id" style="text;strokeColor=none;fillColor=none;spacingLeft=4;spacingRight=4;overflow=hidden;rotatable=0;points=[[0,0.5],[1,0.5]];portConstraint=eastwest;fontSize=12;" parent="123" vertex="1">
                    <mxGeometry y="26" width="160" height="30" as="geometry"/>
                </mxCell>
                <mxCell id="125" value="company" style="text;strokeColor=none;fillColor=none;spacingLeft=4;spacingRight=4;overflow=hidden;rotatable=0;points=[[0,0.5],[1,0.5]];portConstraint=eastwest;fontSize=12;" parent="123" vertex="1">
                    <mxGeometry y="56" width="160" height="30" as="geometry"/>
                </mxCell>
                <mxCell id="126" value="last_name" style="text;strokeColor=none;fillColor=none;spacingLeft=4;spacingRight=4;overflow=hidden;rotatable=0;points=[[0,0.5],[1,0.5]];portConstraint=eastwest;fontSize=12;strokeWidth=1;" parent="123" vertex="1">
                    <mxGeometry y="86" width="160" height="34" as="geometry"/>
                </mxCell>
                <mxCell id="127" value="first_name" style="text;strokeColor=none;fillColor=none;spacingLeft=4;spacingRight=4;overflow=hidden;rotatable=0;points=[[0,0.5],[1,0.5]];portConstraint=eastwest;fontSize=12;strokeWidth=1;" parent="123" vertex="1">
                    <mxGeometry y="120" width="160" height="34" as="geometry"/>
                </mxCell>
                <mxCell id="128" value="email_address" style="text;strokeColor=none;fillColor=none;spacingLeft=4;spacingRight=4;overflow=hidden;rotatable=0;points=[[0,0.5],[1,0.5]];portConstraint=eastwest;fontSize=12;strokeWidth=1;" parent="123" vertex="1">
                    <mxGeometry y="154" width="160" height="34" as="geometry"/>
                </mxCell>
                <mxCell id="129" value="job_title" style="text;strokeColor=none;fillColor=none;spacingLeft=4;spacingRight=4;overflow=hidden;rotatable=0;points=[[0,0.5],[1,0.5]];portConstraint=eastwest;fontSize=12;strokeWidth=1;" parent="123" vertex="1">
                    <mxGeometry y="188" width="160" height="34" as="geometry"/>
                </mxCell>
                <mxCell id="130" value="business_phone" style="text;strokeColor=none;fillColor=none;spacingLeft=4;spacingRight=4;overflow=hidden;rotatable=0;points=[[0,0.5],[1,0.5]];portConstraint=eastwest;fontSize=12;strokeWidth=1;" parent="123" vertex="1">
                    <mxGeometry y="222" width="160" height="34" as="geometry"/>
                </mxCell>
                <mxCell id="131" value="home_phone" style="text;strokeColor=none;fillColor=none;spacingLeft=4;spacingRight=4;overflow=hidden;rotatable=0;points=[[0,0.5],[1,0.5]];portConstraint=eastwest;fontSize=12;strokeWidth=1;" parent="123" vertex="1">
                    <mxGeometry y="256" width="160" height="34" as="geometry"/>
                </mxCell>
                <mxCell id="132" value="mobile_phone" style="text;strokeColor=none;fillColor=none;spacingLeft=4;spacingRight=4;overflow=hidden;rotatable=0;points=[[0,0.5],[1,0.5]];portConstraint=eastwest;fontSize=12;strokeWidth=1;" parent="123" vertex="1">
                    <mxGeometry y="290" width="160" height="34" as="geometry"/>
                </mxCell>
                <mxCell id="133" value="fax_number" style="text;strokeColor=none;fillColor=none;spacingLeft=4;spacingRight=4;overflow=hidden;rotatable=0;points=[[0,0.5],[1,0.5]];portConstraint=eastwest;fontSize=12;strokeWidth=1;" parent="123" vertex="1">
                    <mxGeometry y="324" width="160" height="34" as="geometry"/>
                </mxCell>
                <mxCell id="134" value="address" style="text;strokeColor=none;fillColor=none;spacingLeft=4;spacingRight=4;overflow=hidden;rotatable=0;points=[[0,0.5],[1,0.5]];portConstraint=eastwest;fontSize=12;strokeWidth=1;" parent="123" vertex="1">
                    <mxGeometry y="358" width="160" height="34" as="geometry"/>
                </mxCell>
                <mxCell id="135" value="city" style="text;strokeColor=none;fillColor=none;spacingLeft=4;spacingRight=4;overflow=hidden;rotatable=0;points=[[0,0.5],[1,0.5]];portConstraint=eastwest;fontSize=12;strokeWidth=1;" parent="123" vertex="1">
                    <mxGeometry y="392" width="160" height="34" as="geometry"/>
                </mxCell>
                <mxCell id="136" value="state_province" style="text;strokeColor=none;fillColor=none;spacingLeft=4;spacingRight=4;overflow=hidden;rotatable=0;points=[[0,0.5],[1,0.5]];portConstraint=eastwest;fontSize=12;strokeWidth=1;" parent="123" vertex="1">
                    <mxGeometry y="426" width="160" height="34" as="geometry"/>
                </mxCell>
                <mxCell id="137" value="zip_postal_code" style="text;strokeColor=none;fillColor=none;spacingLeft=4;spacingRight=4;overflow=hidden;rotatable=0;points=[[0,0.5],[1,0.5]];portConstraint=eastwest;fontSize=12;strokeWidth=1;" parent="123" vertex="1">
                    <mxGeometry y="460" width="160" height="34" as="geometry"/>
                </mxCell>
                <mxCell id="138" value="country_region" style="text;strokeColor=none;fillColor=none;spacingLeft=4;spacingRight=4;overflow=hidden;rotatable=0;points=[[0,0.5],[1,0.5]];portConstraint=eastwest;fontSize=12;strokeWidth=1;" parent="123" vertex="1">
                    <mxGeometry y="494" width="160" height="34" as="geometry"/>
                </mxCell>
                <mxCell id="139" value="web_page" style="text;strokeColor=none;fillColor=none;spacingLeft=4;spacingRight=4;overflow=hidden;rotatable=0;points=[[0,0.5],[1,0.5]];portConstraint=eastwest;fontSize=12;strokeWidth=1;" parent="123" vertex="1">
                    <mxGeometry y="528" width="160" height="34" as="geometry"/>
                </mxCell>
                <mxCell id="140" value="notes" style="text;strokeColor=none;fillColor=none;spacingLeft=4;spacingRight=4;overflow=hidden;rotatable=0;points=[[0,0.5],[1,0.5]];portConstraint=eastwest;fontSize=12;strokeWidth=1;" parent="123" vertex="1">
                    <mxGeometry y="562" width="160" height="34" as="geometry"/>
                </mxCell>
                <mxCell id="141" value="attachments" style="text;strokeColor=none;fillColor=none;spacingLeft=4;spacingRight=4;overflow=hidden;rotatable=0;points=[[0,0.5],[1,0.5]];portConstraint=eastwest;fontSize=12;strokeWidth=1;" parent="123" vertex="1">
                    <mxGeometry y="596" width="160" height="34" as="geometry"/>
                </mxCell>
                <mxCell id="142" style="edgeStyle=orthogonalEdgeStyle;html=1;exitX=0;exitY=0.5;exitDx=0;exitDy=0;startArrow=ERone;startFill=0;endArrow=ERmany;endFill=0;" parent="1" source="124" target="19" edge="1">
                    <mxGeometry relative="1" as="geometry"/>
                </mxCell>
                <mxCell id="143" value="fact_inventory" style="swimlane;fontStyle=0;childLayout=stackLayout;horizontal=1;startSize=26;horizontalStack=0;resizeParent=1;resizeParentMax=0;resizeLast=0;collapsible=1;marginBottom=0;align=center;fontSize=14;strokeWidth=1;fillColor=#ffcd28;strokeColor=#d79b00;gradientColor=#ffa500;fontColor=#000000;" parent="1" vertex="1">
                    <mxGeometry x="560" y="100" width="160" height="266" as="geometry"/>
                </mxCell>
                <mxCell id="144" value="transaction_type" style="text;strokeColor=none;fillColor=none;spacingLeft=4;spacingRight=4;overflow=hidden;rotatable=0;points=[[0,0.5],[1,0.5]];portConstraint=eastwest;fontSize=12;strokeWidth=1;" parent="143" vertex="1">
                    <mxGeometry y="26" width="160" height="30" as="geometry"/>
                </mxCell>
                <mxCell id="145" value="transaction_created_date" style="text;strokeColor=none;fillColor=none;spacingLeft=4;spacingRight=4;overflow=hidden;rotatable=0;points=[[0,0.5],[1,0.5]];portConstraint=eastwest;fontSize=12;strokeWidth=1;" parent="143" vertex="1">
                    <mxGeometry y="56" width="160" height="30" as="geometry"/>
                </mxCell>
                <mxCell id="146" value="transaction_modified_date" style="text;strokeColor=none;fillColor=none;spacingLeft=4;spacingRight=4;overflow=hidden;rotatable=0;points=[[0,0.5],[1,0.5]];portConstraint=eastwest;fontSize=12;strokeWidth=1;" parent="143" vertex="1">
                    <mxGeometry y="86" width="160" height="30" as="geometry"/>
                </mxCell>
                <mxCell id="189" value="product_id" style="text;strokeColor=none;fillColor=none;spacingLeft=4;spacingRight=4;overflow=hidden;rotatable=0;points=[[0,0.5],[1,0.5]];portConstraint=eastwest;fontSize=12;strokeWidth=1;" parent="143" vertex="1">
                    <mxGeometry y="116" width="160" height="30" as="geometry"/>
                </mxCell>
                <mxCell id="188" value="quantity" style="text;strokeColor=none;fillColor=none;spacingLeft=4;spacingRight=4;overflow=hidden;rotatable=0;points=[[0,0.5],[1,0.5]];portConstraint=eastwest;fontSize=12;strokeWidth=1;" parent="143" vertex="1">
                    <mxGeometry y="146" width="160" height="30" as="geometry"/>
                </mxCell>
                <mxCell id="187" value="purchase_order_id" style="text;strokeColor=none;fillColor=none;spacingLeft=4;spacingRight=4;overflow=hidden;rotatable=0;points=[[0,0.5],[1,0.5]];portConstraint=eastwest;fontSize=12;strokeWidth=1;" parent="143" vertex="1">
                    <mxGeometry y="176" width="160" height="30" as="geometry"/>
                </mxCell>
                <mxCell id="186" value="customer_order_id" style="text;strokeColor=none;fillColor=none;spacingLeft=4;spacingRight=4;overflow=hidden;rotatable=0;points=[[0,0.5],[1,0.5]];portConstraint=eastwest;fontSize=12;strokeWidth=1;" parent="143" vertex="1">
                    <mxGeometry y="206" width="160" height="30" as="geometry"/>
                </mxCell>
                <mxCell id="185" value="comments" style="text;strokeColor=none;fillColor=none;spacingLeft=4;spacingRight=4;overflow=hidden;rotatable=0;points=[[0,0.5],[1,0.5]];portConstraint=eastwest;fontSize=12;strokeWidth=1;" parent="143" vertex="1">
                    <mxGeometry y="236" width="160" height="30" as="geometry"/>
                </mxCell>
                <mxCell id="166" value="dim_product" style="swimlane;fontStyle=0;childLayout=stackLayout;horizontal=1;startSize=26;horizontalStack=0;resizeParent=1;resizeParentMax=0;resizeLast=0;collapsible=1;marginBottom=0;align=center;fontSize=14;fillColor=#f0a30a;fontColor=#000000;strokeColor=#BD7000;swimlaneFillColor=default;gradientColor=default;" parent="1" vertex="1">
                    <mxGeometry x="320" width="160" height="528" as="geometry">
                        <mxRectangle x="-140" y="310" width="110" height="30" as="alternateBounds"/>
                    </mxGeometry>
                </mxCell>
                <mxCell id="167" value="unique_product_id" style="text;strokeColor=none;fillColor=none;spacingLeft=4;spacingRight=4;overflow=hidden;rotatable=0;points=[[0,0.5],[1,0.5]];portConstraint=eastwest;fontSize=12;" parent="166" vertex="1">
                    <mxGeometry y="26" width="160" height="30" as="geometry"/>
                </mxCell>
                <mxCell id="168" value="supplier_company" style="text;strokeColor=none;fillColor=none;spacingLeft=4;spacingRight=4;overflow=hidden;rotatable=0;points=[[0,0.5],[1,0.5]];portConstraint=eastwest;fontSize=12;" parent="166" vertex="1">
                    <mxGeometry y="56" width="160" height="30" as="geometry"/>
                </mxCell>
                <mxCell id="169" value="product_code" style="text;strokeColor=none;fillColor=none;spacingLeft=4;spacingRight=4;overflow=hidden;rotatable=0;points=[[0,0.5],[1,0.5]];portConstraint=eastwest;fontSize=12;strokeWidth=1;" parent="166" vertex="1">
                    <mxGeometry y="86" width="160" height="34" as="geometry"/>
                </mxCell>
                <mxCell id="170" value="product_name" style="text;strokeColor=none;fillColor=none;spacingLeft=4;spacingRight=4;overflow=hidden;rotatable=0;points=[[0,0.5],[1,0.5]];portConstraint=eastwest;fontSize=12;strokeWidth=1;" parent="166" vertex="1">
                    <mxGeometry y="120" width="160" height="34" as="geometry"/>
                </mxCell>
                <mxCell id="171" value="email_address" style="text;strokeColor=none;fillColor=none;spacingLeft=4;spacingRight=4;overflow=hidden;rotatable=0;points=[[0,0.5],[1,0.5]];portConstraint=eastwest;fontSize=12;strokeWidth=1;" parent="166" vertex="1">
                    <mxGeometry y="154" width="160" height="34" as="geometry"/>
                </mxCell>
                <mxCell id="172" value="description" style="text;strokeColor=none;fillColor=none;spacingLeft=4;spacingRight=4;overflow=hidden;rotatable=0;points=[[0,0.5],[1,0.5]];portConstraint=eastwest;fontSize=12;strokeWidth=1;" parent="166" vertex="1">
                    <mxGeometry y="188" width="160" height="34" as="geometry"/>
                </mxCell>
                <mxCell id="173" value="standard_cost" style="text;strokeColor=none;fillColor=none;spacingLeft=4;spacingRight=4;overflow=hidden;rotatable=0;points=[[0,0.5],[1,0.5]];portConstraint=eastwest;fontSize=12;strokeWidth=1;" parent="166" vertex="1">
                    <mxGeometry y="222" width="160" height="34" as="geometry"/>
                </mxCell>
                <mxCell id="174" value="list_price" style="text;strokeColor=none;fillColor=none;spacingLeft=4;spacingRight=4;overflow=hidden;rotatable=0;points=[[0,0.5],[1,0.5]];portConstraint=eastwest;fontSize=12;strokeWidth=1;" parent="166" vertex="1">
                    <mxGeometry y="256" width="160" height="34" as="geometry"/>
                </mxCell>
                <mxCell id="175" value="reorder_level" style="text;strokeColor=none;fillColor=none;spacingLeft=4;spacingRight=4;overflow=hidden;rotatable=0;points=[[0,0.5],[1,0.5]];portConstraint=eastwest;fontSize=12;strokeWidth=1;" parent="166" vertex="1">
                    <mxGeometry y="290" width="160" height="34" as="geometry"/>
                </mxCell>
                <mxCell id="176" value="target_level" style="text;strokeColor=none;fillColor=none;spacingLeft=4;spacingRight=4;overflow=hidden;rotatable=0;points=[[0,0.5],[1,0.5]];portConstraint=eastwest;fontSize=12;strokeWidth=1;" parent="166" vertex="1">
                    <mxGeometry y="324" width="160" height="34" as="geometry"/>
                </mxCell>
                <mxCell id="177" value="quantity_per_unit" style="text;strokeColor=none;fillColor=none;spacingLeft=4;spacingRight=4;overflow=hidden;rotatable=0;points=[[0,0.5],[1,0.5]];portConstraint=eastwest;fontSize=12;strokeWidth=1;" parent="166" vertex="1">
                    <mxGeometry y="358" width="160" height="34" as="geometry"/>
                </mxCell>
                <mxCell id="178" value="discontinued" style="text;strokeColor=none;fillColor=none;spacingLeft=4;spacingRight=4;overflow=hidden;rotatable=0;points=[[0,0.5],[1,0.5]];portConstraint=eastwest;fontSize=12;strokeWidth=1;" parent="166" vertex="1">
                    <mxGeometry y="392" width="160" height="34" as="geometry"/>
                </mxCell>
                <mxCell id="179" value="minimum_reorder_quantity" style="text;strokeColor=none;fillColor=none;spacingLeft=4;spacingRight=4;overflow=hidden;rotatable=0;points=[[0,0.5],[1,0.5]];portConstraint=eastwest;fontSize=12;strokeWidth=1;" parent="166" vertex="1">
                    <mxGeometry y="426" width="160" height="34" as="geometry"/>
                </mxCell>
                <mxCell id="180" value="category" style="text;strokeColor=none;fillColor=none;spacingLeft=4;spacingRight=4;overflow=hidden;rotatable=0;points=[[0,0.5],[1,0.5]];portConstraint=eastwest;fontSize=12;strokeWidth=1;" parent="166" vertex="1">
                    <mxGeometry y="460" width="160" height="34" as="geometry"/>
                </mxCell>
                <mxCell id="183" value="notes" style="text;strokeColor=none;fillColor=none;spacingLeft=4;spacingRight=4;overflow=hidden;rotatable=0;points=[[0,0.5],[1,0.5]];portConstraint=eastwest;fontSize=12;strokeWidth=1;" parent="166" vertex="1">
                    <mxGeometry y="494" width="160" height="34" as="geometry"/>
                </mxCell>
                <mxCell id="190" style="edgeStyle=orthogonalEdgeStyle;html=1;exitX=1;exitY=0.5;exitDx=0;exitDy=0;entryX=0;entryY=0.5;entryDx=0;entryDy=0;fontColor=#000000;startArrow=ERone;startFill=0;endArrow=ERmany;endFill=0;" parent="1" source="167" target="189" edge="1">
                    <mxGeometry relative="1" as="geometry"/>
                </mxCell>
                <mxCell id="191" value="dim_date" style="swimlane;fontStyle=0;childLayout=stackLayout;horizontal=1;startSize=30;horizontalStack=0;resizeParent=1;resizeParentMax=0;resizeLast=0;collapsible=1;marginBottom=0;align=center;fontSize=14;fillColor=#f0a30a;fontColor=#000000;strokeColor=#BD7000;swimlaneFillColor=default;gradientColor=default;" parent="1" vertex="1">
                    <mxGeometry x="850" width="160" height="394" as="geometry">
                        <mxRectangle x="-140" y="310" width="110" height="30" as="alternateBounds"/>
                    </mxGeometry>
                </mxCell>
                <mxCell id="192" value="id" style="text;strokeColor=none;fillColor=none;spacingLeft=4;spacingRight=4;overflow=hidden;rotatable=0;points=[[0,0.5],[1,0.5]];portConstraint=eastwest;fontSize=12;" parent="191" vertex="1">
                    <mxGeometry y="30" width="160" height="30" as="geometry"/>
                </mxCell>
                <mxCell id="193" value="full_date" style="text;strokeColor=none;fillColor=none;spacingLeft=4;spacingRight=4;overflow=hidden;rotatable=0;points=[[0,0.5],[1,0.5]];portConstraint=eastwest;fontSize=12;" parent="191" vertex="1">
                    <mxGeometry y="60" width="160" height="30" as="geometry"/>
                </mxCell>
                <mxCell id="194" value="year" style="text;strokeColor=none;fillColor=none;spacingLeft=4;spacingRight=4;overflow=hidden;rotatable=0;points=[[0,0.5],[1,0.5]];portConstraint=eastwest;fontSize=12;strokeWidth=1;" parent="191" vertex="1">
                    <mxGeometry y="90" width="160" height="34" as="geometry"/>
                </mxCell>
                <mxCell id="195" value="year_week" style="text;strokeColor=none;fillColor=none;spacingLeft=4;spacingRight=4;overflow=hidden;rotatable=0;points=[[0,0.5],[1,0.5]];portConstraint=eastwest;fontSize=12;strokeWidth=1;" parent="191" vertex="1">
                    <mxGeometry y="124" width="160" height="34" as="geometry"/>
                </mxCell>
                <mxCell id="196" value="year_day" style="text;strokeColor=none;fillColor=none;spacingLeft=4;spacingRight=4;overflow=hidden;rotatable=0;points=[[0,0.5],[1,0.5]];portConstraint=eastwest;fontSize=12;strokeWidth=1;" parent="191" vertex="1">
                    <mxGeometry y="158" width="160" height="32" as="geometry"/>
                </mxCell>
                <mxCell id="197" value="fiscal_year" style="text;strokeColor=none;fillColor=none;spacingLeft=4;spacingRight=4;overflow=hidden;rotatable=0;points=[[0,0.5],[1,0.5]];portConstraint=eastwest;fontSize=12;strokeWidth=1;" parent="191" vertex="1">
                    <mxGeometry y="190" width="160" height="34" as="geometry"/>
                </mxCell>
                <mxCell id="198" value="fiscal_qtr" style="text;strokeColor=none;fillColor=none;spacingLeft=4;spacingRight=4;overflow=hidden;rotatable=0;points=[[0,0.5],[1,0.5]];portConstraint=eastwest;fontSize=12;strokeWidth=1;" parent="191" vertex="1">
                    <mxGeometry y="224" width="160" height="34" as="geometry"/>
                </mxCell>
                <mxCell id="199" value="month" style="text;strokeColor=none;fillColor=none;spacingLeft=4;spacingRight=4;overflow=hidden;rotatable=0;points=[[0,0.5],[1,0.5]];portConstraint=eastwest;fontSize=12;strokeWidth=1;" parent="191" vertex="1">
                    <mxGeometry y="258" width="160" height="34" as="geometry"/>
                </mxCell>
                <mxCell id="200" value="month_name" style="text;strokeColor=none;fillColor=none;spacingLeft=4;spacingRight=4;overflow=hidden;rotatable=0;points=[[0,0.5],[1,0.5]];portConstraint=eastwest;fontSize=12;strokeWidth=1;" parent="191" vertex="1">
                    <mxGeometry y="292" width="160" height="34" as="geometry"/>
                </mxCell>
                <mxCell id="201" value="week_day" style="text;strokeColor=none;fillColor=none;spacingLeft=4;spacingRight=4;overflow=hidden;rotatable=0;points=[[0,0.5],[1,0.5]];portConstraint=eastwest;fontSize=12;strokeWidth=1;" parent="191" vertex="1">
                    <mxGeometry y="326" width="160" height="34" as="geometry"/>
                </mxCell>
                <mxCell id="202" value="day_name" style="text;strokeColor=none;fillColor=none;spacingLeft=4;spacingRight=4;overflow=hidden;rotatable=0;points=[[0,0.5],[1,0.5]];portConstraint=eastwest;fontSize=12;strokeWidth=1;" parent="191" vertex="1">
                    <mxGeometry y="360" width="160" height="34" as="geometry"/>
                </mxCell>
                <mxCell id="203" style="edgeStyle=orthogonalEdgeStyle;html=1;exitX=0;exitY=0.5;exitDx=0;exitDy=0;entryX=1;entryY=0.5;entryDx=0;entryDy=0;fontColor=#000000;startArrow=ERone;startFill=0;endArrow=ERmany;endFill=0;" parent="1" source="192" target="145" edge="1">
                    <mxGeometry relative="1" as="geometry"/>
                </mxCell>
                <mxCell id="204" value="fact_purchase_orders" style="swimlane;fontStyle=0;childLayout=stackLayout;horizontal=1;startSize=26;horizontalStack=0;resizeParent=1;resizeParentMax=0;resizeLast=0;collapsible=1;marginBottom=0;align=center;fontSize=14;fillColor=#f0a30a;fontColor=#000000;strokeColor=#BD7000;swimlaneFillColor=default;gradientColor=default;" parent="1" vertex="1">
                    <mxGeometry x="560" y="540" width="160" height="868" as="geometry">
                        <mxRectangle x="-140" y="310" width="110" height="30" as="alternateBounds"/>
                    </mxGeometry>
                </mxCell>
                <mxCell id="205" value="customer_id" style="text;strokeColor=none;fillColor=none;spacingLeft=4;spacingRight=4;overflow=hidden;rotatable=0;points=[[0,0.5],[1,0.5]];portConstraint=eastwest;fontSize=12;" parent="204" vertex="1">
                    <mxGeometry y="26" width="160" height="30" as="geometry"/>
                </mxCell>
                <mxCell id="206" value="employee_id" style="text;strokeColor=none;fillColor=none;spacingLeft=4;spacingRight=4;overflow=hidden;rotatable=0;points=[[0,0.5],[1,0.5]];portConstraint=eastwest;fontSize=12;" parent="204" vertex="1">
                    <mxGeometry y="56" width="160" height="30" as="geometry"/>
                </mxCell>
                <mxCell id="207" value="purchase_order_id" style="text;strokeColor=none;fillColor=none;spacingLeft=4;spacingRight=4;overflow=hidden;rotatable=0;points=[[0,0.5],[1,0.5]];portConstraint=eastwest;fontSize=12;strokeWidth=1;" parent="204" vertex="1">
                    <mxGeometry y="86" width="160" height="34" as="geometry"/>
                </mxCell>
                <mxCell id="208" value="product_id" style="text;strokeColor=none;fillColor=none;spacingLeft=4;spacingRight=4;overflow=hidden;rotatable=0;points=[[0,0.5],[1,0.5]];portConstraint=eastwest;fontSize=12;strokeWidth=1;" parent="204" vertex="1">
                    <mxGeometry y="120" width="160" height="34" as="geometry"/>
                </mxCell>
                <mxCell id="210" value="quantity" style="text;strokeColor=none;fillColor=none;spacingLeft=4;spacingRight=4;overflow=hidden;rotatable=0;points=[[0,0.5],[1,0.5]];portConstraint=eastwest;fontSize=12;strokeWidth=1;" parent="204" vertex="1">
                    <mxGeometry y="154" width="160" height="34" as="geometry"/>
                </mxCell>
                <mxCell id="211" value="unit_cost" style="text;strokeColor=none;fillColor=none;spacingLeft=4;spacingRight=4;overflow=hidden;rotatable=0;points=[[0,0.5],[1,0.5]];portConstraint=eastwest;fontSize=12;strokeWidth=1;" parent="204" vertex="1">
                    <mxGeometry y="188" width="160" height="34" as="geometry"/>
                </mxCell>
                <mxCell id="212" value="date_received" style="text;strokeColor=none;fillColor=none;spacingLeft=4;spacingRight=4;overflow=hidden;rotatable=0;points=[[0,0.5],[1,0.5]];portConstraint=eastwest;fontSize=12;strokeWidth=1;" parent="204" vertex="1">
                    <mxGeometry y="222" width="160" height="34" as="geometry"/>
                </mxCell>
                <mxCell id="213" value="posted_to_inventory" style="text;strokeColor=none;fillColor=none;spacingLeft=4;spacingRight=4;overflow=hidden;rotatable=0;points=[[0,0.5],[1,0.5]];portConstraint=eastwest;fontSize=12;strokeWidth=1;" parent="204" vertex="1">
                    <mxGeometry y="256" width="160" height="34" as="geometry"/>
                </mxCell>
                <mxCell id="214" value="date_allocated" style="text;strokeColor=none;fillColor=none;spacingLeft=4;spacingRight=4;overflow=hidden;rotatable=0;points=[[0,0.5],[1,0.5]];portConstraint=eastwest;fontSize=12;strokeWidth=1;" parent="204" vertex="1">
                    <mxGeometry y="290" width="160" height="34" as="geometry"/>
                </mxCell>
                <mxCell id="215" value="inventory_id" style="text;strokeColor=none;fillColor=none;spacingLeft=4;spacingRight=4;overflow=hidden;rotatable=0;points=[[0,0.5],[1,0.5]];portConstraint=eastwest;fontSize=12;strokeWidth=1;" parent="204" vertex="1">
                    <mxGeometry y="324" width="160" height="34" as="geometry"/>
                </mxCell>
                <mxCell id="216" value="supplier_id" style="text;strokeColor=none;fillColor=none;spacingLeft=4;spacingRight=4;overflow=hidden;rotatable=0;points=[[0,0.5],[1,0.5]];portConstraint=eastwest;fontSize=12;strokeWidth=1;" parent="204" vertex="1">
                    <mxGeometry y="358" width="160" height="34" as="geometry"/>
                </mxCell>
                <mxCell id="217" value="created_by" style="text;strokeColor=none;fillColor=none;spacingLeft=4;spacingRight=4;overflow=hidden;rotatable=0;points=[[0,0.5],[1,0.5]];portConstraint=eastwest;fontSize=12;strokeWidth=1;" parent="204" vertex="1">
                    <mxGeometry y="392" width="160" height="34" as="geometry"/>
                </mxCell>
                <mxCell id="218" value="submitted_date" style="text;strokeColor=none;fillColor=none;spacingLeft=4;spacingRight=4;overflow=hidden;rotatable=0;points=[[0,0.5],[1,0.5]];portConstraint=eastwest;fontSize=12;strokeWidth=1;" parent="204" vertex="1">
                    <mxGeometry y="426" width="160" height="34" as="geometry"/>
                </mxCell>
                <mxCell id="219" value="creation_date" style="text;strokeColor=none;fillColor=none;spacingLeft=4;spacingRight=4;overflow=hidden;rotatable=0;points=[[0,0.5],[1,0.5]];portConstraint=eastwest;fontSize=12;strokeWidth=1;" parent="204" vertex="1">
                    <mxGeometry y="460" width="160" height="34" as="geometry"/>
                </mxCell>
                <mxCell id="220" value="status_id" style="text;strokeColor=none;fillColor=none;spacingLeft=4;spacingRight=4;overflow=hidden;rotatable=0;points=[[0,0.5],[1,0.5]];portConstraint=eastwest;fontSize=12;strokeWidth=1;" parent="204" vertex="1">
                    <mxGeometry y="494" width="160" height="34" as="geometry"/>
                </mxCell>
                <mxCell id="221" value="expected_date" style="text;strokeColor=none;fillColor=none;spacingLeft=4;spacingRight=4;overflow=hidden;rotatable=0;points=[[0,0.5],[1,0.5]];portConstraint=eastwest;fontSize=12;strokeWidth=1;" parent="204" vertex="1">
                    <mxGeometry y="528" width="160" height="34" as="geometry"/>
                </mxCell>
                <mxCell id="222" value="shipping_fee" style="text;strokeColor=none;fillColor=none;spacingLeft=4;spacingRight=4;overflow=hidden;rotatable=0;points=[[0,0.5],[1,0.5]];portConstraint=eastwest;fontSize=12;strokeWidth=1;" parent="204" vertex="1">
                    <mxGeometry y="562" width="160" height="34" as="geometry"/>
                </mxCell>
                <mxCell id="223" value="taxes" style="text;strokeColor=none;fillColor=none;spacingLeft=4;spacingRight=4;overflow=hidden;rotatable=0;points=[[0,0.5],[1,0.5]];portConstraint=eastwest;fontSize=12;strokeWidth=1;" parent="204" vertex="1">
                    <mxGeometry y="596" width="160" height="34" as="geometry"/>
                </mxCell>
                <mxCell id="224" value="payment_date" style="text;strokeColor=none;fillColor=none;spacingLeft=4;spacingRight=4;overflow=hidden;rotatable=0;points=[[0,0.5],[1,0.5]];portConstraint=eastwest;fontSize=12;strokeWidth=1;" parent="204" vertex="1">
                    <mxGeometry y="630" width="160" height="34" as="geometry"/>
                </mxCell>
                <mxCell id="225" value="payment_amount" style="text;strokeColor=none;fillColor=none;spacingLeft=4;spacingRight=4;overflow=hidden;rotatable=0;points=[[0,0.5],[1,0.5]];portConstraint=eastwest;fontSize=12;strokeWidth=1;" parent="204" vertex="1">
                    <mxGeometry y="664" width="160" height="34" as="geometry"/>
                </mxCell>
                <mxCell id="226" value="payment_method" style="text;strokeColor=none;fillColor=none;spacingLeft=4;spacingRight=4;overflow=hidden;rotatable=0;points=[[0,0.5],[1,0.5]];portConstraint=eastwest;fontSize=12;strokeWidth=1;" parent="204" vertex="1">
                    <mxGeometry y="698" width="160" height="34" as="geometry"/>
                </mxCell>
                <mxCell id="230" value="notes" style="text;strokeColor=none;fillColor=none;spacingLeft=4;spacingRight=4;overflow=hidden;rotatable=0;points=[[0,0.5],[1,0.5]];portConstraint=eastwest;fontSize=12;strokeWidth=1;" parent="204" vertex="1">
                    <mxGeometry y="732" width="160" height="34" as="geometry"/>
                </mxCell>
                <mxCell id="229" value="approved_by" style="text;strokeColor=none;fillColor=none;spacingLeft=4;spacingRight=4;overflow=hidden;rotatable=0;points=[[0,0.5],[1,0.5]];portConstraint=eastwest;fontSize=12;strokeWidth=1;" parent="204" vertex="1">
                    <mxGeometry y="766" width="160" height="34" as="geometry"/>
                </mxCell>
                <mxCell id="228" value="approved_date" style="text;strokeColor=none;fillColor=none;spacingLeft=4;spacingRight=4;overflow=hidden;rotatable=0;points=[[0,0.5],[1,0.5]];portConstraint=eastwest;fontSize=12;strokeWidth=1;" parent="204" vertex="1">
                    <mxGeometry y="800" width="160" height="34" as="geometry"/>
                </mxCell>
                <mxCell id="227" value="submitted_by" style="text;strokeColor=none;fillColor=none;spacingLeft=4;spacingRight=4;overflow=hidden;rotatable=0;points=[[0,0.5],[1,0.5]];portConstraint=eastwest;fontSize=12;strokeWidth=1;" parent="204" vertex="1">
                    <mxGeometry y="834" width="160" height="34" as="geometry"/>
                </mxCell>
                <mxCell id="231" value="dim_employee" style="swimlane;fontStyle=0;childLayout=stackLayout;horizontal=1;startSize=26;horizontalStack=0;resizeParent=1;resizeParentMax=0;resizeLast=0;collapsible=1;marginBottom=0;align=center;fontSize=14;fillColor=#f0a30a;fontColor=#000000;strokeColor=#BD7000;swimlaneFillColor=default;gradientColor=default;" parent="1" vertex="1">
                    <mxGeometry x="860" y="1230" width="160" height="630" as="geometry">
                        <mxRectangle x="-140" y="310" width="110" height="30" as="alternateBounds"/>
                    </mxGeometry>
                </mxCell>
                <mxCell id="232" value="unique_employee_id" style="text;strokeColor=none;fillColor=none;spacingLeft=4;spacingRight=4;overflow=hidden;rotatable=0;points=[[0,0.5],[1,0.5]];portConstraint=eastwest;fontSize=12;" parent="231" vertex="1">
                    <mxGeometry y="26" width="160" height="30" as="geometry"/>
                </mxCell>
                <mxCell id="233" value="company" style="text;strokeColor=none;fillColor=none;spacingLeft=4;spacingRight=4;overflow=hidden;rotatable=0;points=[[0,0.5],[1,0.5]];portConstraint=eastwest;fontSize=12;" parent="231" vertex="1">
                    <mxGeometry y="56" width="160" height="30" as="geometry"/>
                </mxCell>
                <mxCell id="234" value="last_name" style="text;strokeColor=none;fillColor=none;spacingLeft=4;spacingRight=4;overflow=hidden;rotatable=0;points=[[0,0.5],[1,0.5]];portConstraint=eastwest;fontSize=12;strokeWidth=1;" parent="231" vertex="1">
                    <mxGeometry y="86" width="160" height="34" as="geometry"/>
                </mxCell>
                <mxCell id="235" value="first_name" style="text;strokeColor=none;fillColor=none;spacingLeft=4;spacingRight=4;overflow=hidden;rotatable=0;points=[[0,0.5],[1,0.5]];portConstraint=eastwest;fontSize=12;strokeWidth=1;" parent="231" vertex="1">
                    <mxGeometry y="120" width="160" height="34" as="geometry"/>
                </mxCell>
                <mxCell id="236" value="email_address" style="text;strokeColor=none;fillColor=none;spacingLeft=4;spacingRight=4;overflow=hidden;rotatable=0;points=[[0,0.5],[1,0.5]];portConstraint=eastwest;fontSize=12;strokeWidth=1;" parent="231" vertex="1">
                    <mxGeometry y="154" width="160" height="34" as="geometry"/>
                </mxCell>
                <mxCell id="237" value="job_title" style="text;strokeColor=none;fillColor=none;spacingLeft=4;spacingRight=4;overflow=hidden;rotatable=0;points=[[0,0.5],[1,0.5]];portConstraint=eastwest;fontSize=12;strokeWidth=1;" parent="231" vertex="1">
                    <mxGeometry y="188" width="160" height="34" as="geometry"/>
                </mxCell>
                <mxCell id="238" value="business_phone" style="text;strokeColor=none;fillColor=none;spacingLeft=4;spacingRight=4;overflow=hidden;rotatable=0;points=[[0,0.5],[1,0.5]];portConstraint=eastwest;fontSize=12;strokeWidth=1;" parent="231" vertex="1">
                    <mxGeometry y="222" width="160" height="34" as="geometry"/>
                </mxCell>
                <mxCell id="239" value="home_phone" style="text;strokeColor=none;fillColor=none;spacingLeft=4;spacingRight=4;overflow=hidden;rotatable=0;points=[[0,0.5],[1,0.5]];portConstraint=eastwest;fontSize=12;strokeWidth=1;" parent="231" vertex="1">
                    <mxGeometry y="256" width="160" height="34" as="geometry"/>
                </mxCell>
                <mxCell id="240" value="mobile_phone" style="text;strokeColor=none;fillColor=none;spacingLeft=4;spacingRight=4;overflow=hidden;rotatable=0;points=[[0,0.5],[1,0.5]];portConstraint=eastwest;fontSize=12;strokeWidth=1;" parent="231" vertex="1">
                    <mxGeometry y="290" width="160" height="34" as="geometry"/>
                </mxCell>
                <mxCell id="241" value="fax_number" style="text;strokeColor=none;fillColor=none;spacingLeft=4;spacingRight=4;overflow=hidden;rotatable=0;points=[[0,0.5],[1,0.5]];portConstraint=eastwest;fontSize=12;strokeWidth=1;" parent="231" vertex="1">
                    <mxGeometry y="324" width="160" height="34" as="geometry"/>
                </mxCell>
                <mxCell id="242" value="address" style="text;strokeColor=none;fillColor=none;spacingLeft=4;spacingRight=4;overflow=hidden;rotatable=0;points=[[0,0.5],[1,0.5]];portConstraint=eastwest;fontSize=12;strokeWidth=1;" parent="231" vertex="1">
                    <mxGeometry y="358" width="160" height="34" as="geometry"/>
                </mxCell>
                <mxCell id="243" value="city" style="text;strokeColor=none;fillColor=none;spacingLeft=4;spacingRight=4;overflow=hidden;rotatable=0;points=[[0,0.5],[1,0.5]];portConstraint=eastwest;fontSize=12;strokeWidth=1;" parent="231" vertex="1">
                    <mxGeometry y="392" width="160" height="34" as="geometry"/>
                </mxCell>
                <mxCell id="244" value="state_province" style="text;strokeColor=none;fillColor=none;spacingLeft=4;spacingRight=4;overflow=hidden;rotatable=0;points=[[0,0.5],[1,0.5]];portConstraint=eastwest;fontSize=12;strokeWidth=1;" parent="231" vertex="1">
                    <mxGeometry y="426" width="160" height="34" as="geometry"/>
                </mxCell>
                <mxCell id="245" value="zip_postal_code" style="text;strokeColor=none;fillColor=none;spacingLeft=4;spacingRight=4;overflow=hidden;rotatable=0;points=[[0,0.5],[1,0.5]];portConstraint=eastwest;fontSize=12;strokeWidth=1;" parent="231" vertex="1">
                    <mxGeometry y="460" width="160" height="34" as="geometry"/>
                </mxCell>
                <mxCell id="246" value="country_region" style="text;strokeColor=none;fillColor=none;spacingLeft=4;spacingRight=4;overflow=hidden;rotatable=0;points=[[0,0.5],[1,0.5]];portConstraint=eastwest;fontSize=12;strokeWidth=1;" parent="231" vertex="1">
                    <mxGeometry y="494" width="160" height="34" as="geometry"/>
                </mxCell>
                <mxCell id="247" value="web_page" style="text;strokeColor=none;fillColor=none;spacingLeft=4;spacingRight=4;overflow=hidden;rotatable=0;points=[[0,0.5],[1,0.5]];portConstraint=eastwest;fontSize=12;strokeWidth=1;" parent="231" vertex="1">
                    <mxGeometry y="528" width="160" height="34" as="geometry"/>
                </mxCell>
                <mxCell id="248" value="notes" style="text;strokeColor=none;fillColor=none;spacingLeft=4;spacingRight=4;overflow=hidden;rotatable=0;points=[[0,0.5],[1,0.5]];portConstraint=eastwest;fontSize=12;strokeWidth=1;" parent="231" vertex="1">
                    <mxGeometry y="562" width="160" height="34" as="geometry"/>
                </mxCell>
                <mxCell id="249" value="attachments" style="text;strokeColor=none;fillColor=none;spacingLeft=4;spacingRight=4;overflow=hidden;rotatable=0;points=[[0,0.5],[1,0.5]];portConstraint=eastwest;fontSize=12;strokeWidth=1;" parent="231" vertex="1">
                    <mxGeometry y="596" width="160" height="34" as="geometry"/>
                </mxCell>
                <mxCell id="250" value="dim_customer" style="swimlane;fontStyle=0;childLayout=stackLayout;horizontal=1;startSize=26;horizontalStack=0;resizeParent=1;resizeParentMax=0;resizeLast=0;collapsible=1;marginBottom=0;align=center;fontSize=14;fillColor=#f0a30a;fontColor=#000000;strokeColor=#BD7000;swimlaneFillColor=default;gradientColor=default;" parent="1" vertex="1">
                    <mxGeometry x="860" y="480" width="160" height="630" as="geometry">
                        <mxRectangle x="-140" y="310" width="110" height="30" as="alternateBounds"/>
                    </mxGeometry>
                </mxCell>
                <mxCell id="251" value="unique_customer_id" style="text;strokeColor=none;fillColor=none;spacingLeft=4;spacingRight=4;overflow=hidden;rotatable=0;points=[[0,0.5],[1,0.5]];portConstraint=eastwest;fontSize=12;" parent="250" vertex="1">
                    <mxGeometry y="26" width="160" height="30" as="geometry"/>
                </mxCell>
                <mxCell id="252" value="company" style="text;strokeColor=none;fillColor=none;spacingLeft=4;spacingRight=4;overflow=hidden;rotatable=0;points=[[0,0.5],[1,0.5]];portConstraint=eastwest;fontSize=12;" parent="250" vertex="1">
                    <mxGeometry y="56" width="160" height="30" as="geometry"/>
                </mxCell>
                <mxCell id="253" value="last_name" style="text;strokeColor=none;fillColor=none;spacingLeft=4;spacingRight=4;overflow=hidden;rotatable=0;points=[[0,0.5],[1,0.5]];portConstraint=eastwest;fontSize=12;strokeWidth=1;" parent="250" vertex="1">
                    <mxGeometry y="86" width="160" height="34" as="geometry"/>
                </mxCell>
                <mxCell id="254" value="first_name" style="text;strokeColor=none;fillColor=none;spacingLeft=4;spacingRight=4;overflow=hidden;rotatable=0;points=[[0,0.5],[1,0.5]];portConstraint=eastwest;fontSize=12;strokeWidth=1;" parent="250" vertex="1">
                    <mxGeometry y="120" width="160" height="34" as="geometry"/>
                </mxCell>
                <mxCell id="255" value="email_address" style="text;strokeColor=none;fillColor=none;spacingLeft=4;spacingRight=4;overflow=hidden;rotatable=0;points=[[0,0.5],[1,0.5]];portConstraint=eastwest;fontSize=12;strokeWidth=1;" parent="250" vertex="1">
                    <mxGeometry y="154" width="160" height="34" as="geometry"/>
                </mxCell>
                <mxCell id="256" value="job_title" style="text;strokeColor=none;fillColor=none;spacingLeft=4;spacingRight=4;overflow=hidden;rotatable=0;points=[[0,0.5],[1,0.5]];portConstraint=eastwest;fontSize=12;strokeWidth=1;" parent="250" vertex="1">
                    <mxGeometry y="188" width="160" height="34" as="geometry"/>
                </mxCell>
                <mxCell id="257" value="business_phone" style="text;strokeColor=none;fillColor=none;spacingLeft=4;spacingRight=4;overflow=hidden;rotatable=0;points=[[0,0.5],[1,0.5]];portConstraint=eastwest;fontSize=12;strokeWidth=1;" parent="250" vertex="1">
                    <mxGeometry y="222" width="160" height="34" as="geometry"/>
                </mxCell>
                <mxCell id="258" value="home_phone" style="text;strokeColor=none;fillColor=none;spacingLeft=4;spacingRight=4;overflow=hidden;rotatable=0;points=[[0,0.5],[1,0.5]];portConstraint=eastwest;fontSize=12;strokeWidth=1;" parent="250" vertex="1">
                    <mxGeometry y="256" width="160" height="34" as="geometry"/>
                </mxCell>
                <mxCell id="259" value="mobile_phone" style="text;strokeColor=none;fillColor=none;spacingLeft=4;spacingRight=4;overflow=hidden;rotatable=0;points=[[0,0.5],[1,0.5]];portConstraint=eastwest;fontSize=12;strokeWidth=1;" parent="250" vertex="1">
                    <mxGeometry y="290" width="160" height="34" as="geometry"/>
                </mxCell>
                <mxCell id="260" value="fax_number" style="text;strokeColor=none;fillColor=none;spacingLeft=4;spacingRight=4;overflow=hidden;rotatable=0;points=[[0,0.5],[1,0.5]];portConstraint=eastwest;fontSize=12;strokeWidth=1;" parent="250" vertex="1">
                    <mxGeometry y="324" width="160" height="34" as="geometry"/>
                </mxCell>
                <mxCell id="261" value="address" style="text;strokeColor=none;fillColor=none;spacingLeft=4;spacingRight=4;overflow=hidden;rotatable=0;points=[[0,0.5],[1,0.5]];portConstraint=eastwest;fontSize=12;strokeWidth=1;" parent="250" vertex="1">
                    <mxGeometry y="358" width="160" height="34" as="geometry"/>
                </mxCell>
                <mxCell id="262" value="city" style="text;strokeColor=none;fillColor=none;spacingLeft=4;spacingRight=4;overflow=hidden;rotatable=0;points=[[0,0.5],[1,0.5]];portConstraint=eastwest;fontSize=12;strokeWidth=1;" parent="250" vertex="1">
                    <mxGeometry y="392" width="160" height="34" as="geometry"/>
                </mxCell>
                <mxCell id="263" value="state_province" style="text;strokeColor=none;fillColor=none;spacingLeft=4;spacingRight=4;overflow=hidden;rotatable=0;points=[[0,0.5],[1,0.5]];portConstraint=eastwest;fontSize=12;strokeWidth=1;" parent="250" vertex="1">
                    <mxGeometry y="426" width="160" height="34" as="geometry"/>
                </mxCell>
                <mxCell id="264" value="zip_postal_code" style="text;strokeColor=none;fillColor=none;spacingLeft=4;spacingRight=4;overflow=hidden;rotatable=0;points=[[0,0.5],[1,0.5]];portConstraint=eastwest;fontSize=12;strokeWidth=1;" parent="250" vertex="1">
                    <mxGeometry y="460" width="160" height="34" as="geometry"/>
                </mxCell>
                <mxCell id="265" value="country_region" style="text;strokeColor=none;fillColor=none;spacingLeft=4;spacingRight=4;overflow=hidden;rotatable=0;points=[[0,0.5],[1,0.5]];portConstraint=eastwest;fontSize=12;strokeWidth=1;" parent="250" vertex="1">
                    <mxGeometry y="494" width="160" height="34" as="geometry"/>
                </mxCell>
                <mxCell id="266" value="web_page" style="text;strokeColor=none;fillColor=none;spacingLeft=4;spacingRight=4;overflow=hidden;rotatable=0;points=[[0,0.5],[1,0.5]];portConstraint=eastwest;fontSize=12;strokeWidth=1;" parent="250" vertex="1">
                    <mxGeometry y="528" width="160" height="34" as="geometry"/>
                </mxCell>
                <mxCell id="267" value="notes" style="text;strokeColor=none;fillColor=none;spacingLeft=4;spacingRight=4;overflow=hidden;rotatable=0;points=[[0,0.5],[1,0.5]];portConstraint=eastwest;fontSize=12;strokeWidth=1;" parent="250" vertex="1">
                    <mxGeometry y="562" width="160" height="34" as="geometry"/>
                </mxCell>
                <mxCell id="268" value="attachments" style="text;strokeColor=none;fillColor=none;spacingLeft=4;spacingRight=4;overflow=hidden;rotatable=0;points=[[0,0.5],[1,0.5]];portConstraint=eastwest;fontSize=12;strokeWidth=1;" parent="250" vertex="1">
                    <mxGeometry y="596" width="160" height="34" as="geometry"/>
                </mxCell>
                <mxCell id="283" value="dim_product" style="swimlane;fontStyle=0;childLayout=stackLayout;horizontal=1;startSize=26;horizontalStack=0;resizeParent=1;resizeParentMax=0;resizeLast=0;collapsible=1;marginBottom=0;align=center;fontSize=14;fillColor=#f0a30a;fontColor=#000000;strokeColor=#BD7000;swimlaneFillColor=default;gradientColor=default;" parent="1" vertex="1">
                    <mxGeometry x="-540" y="-120" width="160" height="528" as="geometry">
                        <mxRectangle x="-140" y="310" width="110" height="30" as="alternateBounds"/>
                    </mxGeometry>
                </mxCell>
                <mxCell id="284" value="unique_product_id" style="text;strokeColor=none;fillColor=none;spacingLeft=4;spacingRight=4;overflow=hidden;rotatable=0;points=[[0,0.5],[1,0.5]];portConstraint=eastwest;fontSize=12;" parent="283" vertex="1">
                    <mxGeometry y="26" width="160" height="30" as="geometry"/>
                </mxCell>
                <mxCell id="285" value="supplier_company" style="text;strokeColor=none;fillColor=none;spacingLeft=4;spacingRight=4;overflow=hidden;rotatable=0;points=[[0,0.5],[1,0.5]];portConstraint=eastwest;fontSize=12;" parent="283" vertex="1">
                    <mxGeometry y="56" width="160" height="30" as="geometry"/>
                </mxCell>
                <mxCell id="286" value="product_code" style="text;strokeColor=none;fillColor=none;spacingLeft=4;spacingRight=4;overflow=hidden;rotatable=0;points=[[0,0.5],[1,0.5]];portConstraint=eastwest;fontSize=12;strokeWidth=1;" parent="283" vertex="1">
                    <mxGeometry y="86" width="160" height="34" as="geometry"/>
                </mxCell>
                <mxCell id="287" value="product_name" style="text;strokeColor=none;fillColor=none;spacingLeft=4;spacingRight=4;overflow=hidden;rotatable=0;points=[[0,0.5],[1,0.5]];portConstraint=eastwest;fontSize=12;strokeWidth=1;" parent="283" vertex="1">
                    <mxGeometry y="120" width="160" height="34" as="geometry"/>
                </mxCell>
                <mxCell id="288" value="email_address" style="text;strokeColor=none;fillColor=none;spacingLeft=4;spacingRight=4;overflow=hidden;rotatable=0;points=[[0,0.5],[1,0.5]];portConstraint=eastwest;fontSize=12;strokeWidth=1;" parent="283" vertex="1">
                    <mxGeometry y="154" width="160" height="34" as="geometry"/>
                </mxCell>
                <mxCell id="289" value="description" style="text;strokeColor=none;fillColor=none;spacingLeft=4;spacingRight=4;overflow=hidden;rotatable=0;points=[[0,0.5],[1,0.5]];portConstraint=eastwest;fontSize=12;strokeWidth=1;" parent="283" vertex="1">
                    <mxGeometry y="188" width="160" height="34" as="geometry"/>
                </mxCell>
                <mxCell id="290" value="standard_cost" style="text;strokeColor=none;fillColor=none;spacingLeft=4;spacingRight=4;overflow=hidden;rotatable=0;points=[[0,0.5],[1,0.5]];portConstraint=eastwest;fontSize=12;strokeWidth=1;" parent="283" vertex="1">
                    <mxGeometry y="222" width="160" height="34" as="geometry"/>
                </mxCell>
                <mxCell id="291" value="list_price" style="text;strokeColor=none;fillColor=none;spacingLeft=4;spacingRight=4;overflow=hidden;rotatable=0;points=[[0,0.5],[1,0.5]];portConstraint=eastwest;fontSize=12;strokeWidth=1;" parent="283" vertex="1">
                    <mxGeometry y="256" width="160" height="34" as="geometry"/>
                </mxCell>
                <mxCell id="292" value="reorder_level" style="text;strokeColor=none;fillColor=none;spacingLeft=4;spacingRight=4;overflow=hidden;rotatable=0;points=[[0,0.5],[1,0.5]];portConstraint=eastwest;fontSize=12;strokeWidth=1;" parent="283" vertex="1">
                    <mxGeometry y="290" width="160" height="34" as="geometry"/>
                </mxCell>
                <mxCell id="293" value="target_level" style="text;strokeColor=none;fillColor=none;spacingLeft=4;spacingRight=4;overflow=hidden;rotatable=0;points=[[0,0.5],[1,0.5]];portConstraint=eastwest;fontSize=12;strokeWidth=1;" parent="283" vertex="1">
                    <mxGeometry y="324" width="160" height="34" as="geometry"/>
                </mxCell>
                <mxCell id="294" value="quantity_per_unit" style="text;strokeColor=none;fillColor=none;spacingLeft=4;spacingRight=4;overflow=hidden;rotatable=0;points=[[0,0.5],[1,0.5]];portConstraint=eastwest;fontSize=12;strokeWidth=1;" parent="283" vertex="1">
                    <mxGeometry y="358" width="160" height="34" as="geometry"/>
                </mxCell>
                <mxCell id="295" value="discontinued" style="text;strokeColor=none;fillColor=none;spacingLeft=4;spacingRight=4;overflow=hidden;rotatable=0;points=[[0,0.5],[1,0.5]];portConstraint=eastwest;fontSize=12;strokeWidth=1;" parent="283" vertex="1">
                    <mxGeometry y="392" width="160" height="34" as="geometry"/>
                </mxCell>
                <mxCell id="296" value="minimum_reorder_quantity" style="text;strokeColor=none;fillColor=none;spacingLeft=4;spacingRight=4;overflow=hidden;rotatable=0;points=[[0,0.5],[1,0.5]];portConstraint=eastwest;fontSize=12;strokeWidth=1;" parent="283" vertex="1">
                    <mxGeometry y="426" width="160" height="34" as="geometry"/>
                </mxCell>
                <mxCell id="297" value="category" style="text;strokeColor=none;fillColor=none;spacingLeft=4;spacingRight=4;overflow=hidden;rotatable=0;points=[[0,0.5],[1,0.5]];portConstraint=eastwest;fontSize=12;strokeWidth=1;" parent="283" vertex="1">
                    <mxGeometry y="460" width="160" height="34" as="geometry"/>
                </mxCell>
                <mxCell id="298" value="notes" style="text;strokeColor=none;fillColor=none;spacingLeft=4;spacingRight=4;overflow=hidden;rotatable=0;points=[[0,0.5],[1,0.5]];portConstraint=eastwest;fontSize=12;strokeWidth=1;" parent="283" vertex="1">
                    <mxGeometry y="494" width="160" height="34" as="geometry"/>
                </mxCell>
                <mxCell id="299" style="edgeStyle=orthogonalEdgeStyle;html=1;exitX=1;exitY=0.5;exitDx=0;exitDy=0;fontColor=#000000;startArrow=ERone;startFill=0;endArrow=ERmany;endFill=0;" parent="1" source="284" target="17" edge="1">
                    <mxGeometry relative="1" as="geometry"/>
                </mxCell>
                <mxCell id="300" value="dim_product" style="swimlane;fontStyle=0;childLayout=stackLayout;horizontal=1;startSize=26;horizontalStack=0;resizeParent=1;resizeParentMax=0;resizeLast=0;collapsible=1;marginBottom=0;align=center;fontSize=14;fillColor=#f0a30a;fontColor=#000000;strokeColor=#BD7000;swimlaneFillColor=default;gradientColor=default;" parent="1" vertex="1">
                    <mxGeometry x="265" y="1230" width="160" height="528" as="geometry">
                        <mxRectangle x="-140" y="310" width="110" height="30" as="alternateBounds"/>
                    </mxGeometry>
                </mxCell>
                <mxCell id="301" value="unique_product_id" style="text;strokeColor=none;fillColor=none;spacingLeft=4;spacingRight=4;overflow=hidden;rotatable=0;points=[[0,0.5],[1,0.5]];portConstraint=eastwest;fontSize=12;" parent="300" vertex="1">
                    <mxGeometry y="26" width="160" height="30" as="geometry"/>
                </mxCell>
                <mxCell id="302" value="supplier_company" style="text;strokeColor=none;fillColor=none;spacingLeft=4;spacingRight=4;overflow=hidden;rotatable=0;points=[[0,0.5],[1,0.5]];portConstraint=eastwest;fontSize=12;" parent="300" vertex="1">
                    <mxGeometry y="56" width="160" height="30" as="geometry"/>
                </mxCell>
                <mxCell id="303" value="product_code" style="text;strokeColor=none;fillColor=none;spacingLeft=4;spacingRight=4;overflow=hidden;rotatable=0;points=[[0,0.5],[1,0.5]];portConstraint=eastwest;fontSize=12;strokeWidth=1;" parent="300" vertex="1">
                    <mxGeometry y="86" width="160" height="34" as="geometry"/>
                </mxCell>
                <mxCell id="304" value="product_name" style="text;strokeColor=none;fillColor=none;spacingLeft=4;spacingRight=4;overflow=hidden;rotatable=0;points=[[0,0.5],[1,0.5]];portConstraint=eastwest;fontSize=12;strokeWidth=1;" parent="300" vertex="1">
                    <mxGeometry y="120" width="160" height="34" as="geometry"/>
                </mxCell>
                <mxCell id="305" value="email_address" style="text;strokeColor=none;fillColor=none;spacingLeft=4;spacingRight=4;overflow=hidden;rotatable=0;points=[[0,0.5],[1,0.5]];portConstraint=eastwest;fontSize=12;strokeWidth=1;" parent="300" vertex="1">
                    <mxGeometry y="154" width="160" height="34" as="geometry"/>
                </mxCell>
                <mxCell id="306" value="description" style="text;strokeColor=none;fillColor=none;spacingLeft=4;spacingRight=4;overflow=hidden;rotatable=0;points=[[0,0.5],[1,0.5]];portConstraint=eastwest;fontSize=12;strokeWidth=1;" parent="300" vertex="1">
                    <mxGeometry y="188" width="160" height="34" as="geometry"/>
                </mxCell>
                <mxCell id="307" value="standard_cost" style="text;strokeColor=none;fillColor=none;spacingLeft=4;spacingRight=4;overflow=hidden;rotatable=0;points=[[0,0.5],[1,0.5]];portConstraint=eastwest;fontSize=12;strokeWidth=1;" parent="300" vertex="1">
                    <mxGeometry y="222" width="160" height="34" as="geometry"/>
                </mxCell>
                <mxCell id="308" value="list_price" style="text;strokeColor=none;fillColor=none;spacingLeft=4;spacingRight=4;overflow=hidden;rotatable=0;points=[[0,0.5],[1,0.5]];portConstraint=eastwest;fontSize=12;strokeWidth=1;" parent="300" vertex="1">
                    <mxGeometry y="256" width="160" height="34" as="geometry"/>
                </mxCell>
                <mxCell id="309" value="reorder_level" style="text;strokeColor=none;fillColor=none;spacingLeft=4;spacingRight=4;overflow=hidden;rotatable=0;points=[[0,0.5],[1,0.5]];portConstraint=eastwest;fontSize=12;strokeWidth=1;" parent="300" vertex="1">
                    <mxGeometry y="290" width="160" height="34" as="geometry"/>
                </mxCell>
                <mxCell id="310" value="target_level" style="text;strokeColor=none;fillColor=none;spacingLeft=4;spacingRight=4;overflow=hidden;rotatable=0;points=[[0,0.5],[1,0.5]];portConstraint=eastwest;fontSize=12;strokeWidth=1;" parent="300" vertex="1">
                    <mxGeometry y="324" width="160" height="34" as="geometry"/>
                </mxCell>
                <mxCell id="311" value="quantity_per_unit" style="text;strokeColor=none;fillColor=none;spacingLeft=4;spacingRight=4;overflow=hidden;rotatable=0;points=[[0,0.5],[1,0.5]];portConstraint=eastwest;fontSize=12;strokeWidth=1;" parent="300" vertex="1">
                    <mxGeometry y="358" width="160" height="34" as="geometry"/>
                </mxCell>
                <mxCell id="312" value="discontinued" style="text;strokeColor=none;fillColor=none;spacingLeft=4;spacingRight=4;overflow=hidden;rotatable=0;points=[[0,0.5],[1,0.5]];portConstraint=eastwest;fontSize=12;strokeWidth=1;" parent="300" vertex="1">
                    <mxGeometry y="392" width="160" height="34" as="geometry"/>
                </mxCell>
                <mxCell id="313" value="minimum_reorder_quantity" style="text;strokeColor=none;fillColor=none;spacingLeft=4;spacingRight=4;overflow=hidden;rotatable=0;points=[[0,0.5],[1,0.5]];portConstraint=eastwest;fontSize=12;strokeWidth=1;" parent="300" vertex="1">
                    <mxGeometry y="426" width="160" height="34" as="geometry"/>
                </mxCell>
                <mxCell id="314" value="category" style="text;strokeColor=none;fillColor=none;spacingLeft=4;spacingRight=4;overflow=hidden;rotatable=0;points=[[0,0.5],[1,0.5]];portConstraint=eastwest;fontSize=12;strokeWidth=1;" parent="300" vertex="1">
                    <mxGeometry y="460" width="160" height="34" as="geometry"/>
                </mxCell>
                <mxCell id="315" value="notes" style="text;strokeColor=none;fillColor=none;spacingLeft=4;spacingRight=4;overflow=hidden;rotatable=0;points=[[0,0.5],[1,0.5]];portConstraint=eastwest;fontSize=12;strokeWidth=1;" parent="300" vertex="1">
                    <mxGeometry y="494" width="160" height="34" as="geometry"/>
                </mxCell>
                <mxCell id="316" style="edgeStyle=orthogonalEdgeStyle;html=1;exitX=1;exitY=0.5;exitDx=0;exitDy=0;fontColor=#000000;startArrow=ERone;startFill=0;endArrow=ERmany;endFill=0;entryX=0;entryY=0.5;entryDx=0;entryDy=0;" parent="1" source="321" target="212" edge="1">
                    <mxGeometry relative="1" as="geometry">
                        <mxPoint x="440" y="653" as="sourcePoint"/>
                    </mxGeometry>
                </mxCell>
                <mxCell id="317" style="edgeStyle=orthogonalEdgeStyle;html=1;exitX=0;exitY=0.5;exitDx=0;exitDy=0;fontColor=#000000;startArrow=ERone;startFill=0;endArrow=ERmany;endFill=0;" parent="1" source="251" target="205" edge="1">
                    <mxGeometry relative="1" as="geometry"/>
                </mxCell>
                <mxCell id="318" style="edgeStyle=orthogonalEdgeStyle;html=1;exitX=0;exitY=0.5;exitDx=0;exitDy=0;entryX=1;entryY=0.5;entryDx=0;entryDy=0;fontColor=#000000;startArrow=ERone;startFill=0;endArrow=ERmany;endFill=0;" parent="1" source="232" target="206" edge="1">
                    <mxGeometry relative="1" as="geometry"/>
                </mxCell>
                <mxCell id="319" style="edgeStyle=orthogonalEdgeStyle;html=1;exitX=1;exitY=0.5;exitDx=0;exitDy=0;fontColor=#000000;startArrow=ERone;startFill=0;endArrow=ERmany;endFill=0;" parent="1" source="301" target="208" edge="1">
                    <mxGeometry relative="1" as="geometry"/>
                </mxCell>
                <mxCell id="320" value="dim_date" style="swimlane;fontStyle=0;childLayout=stackLayout;horizontal=1;startSize=30;horizontalStack=0;resizeParent=1;resizeParentMax=0;resizeLast=0;collapsible=1;marginBottom=0;align=center;fontSize=14;fillColor=#f0a30a;fontColor=#000000;strokeColor=#BD7000;swimlaneFillColor=default;gradientColor=default;" vertex="1" parent="1">
                    <mxGeometry x="245" y="574" width="160" height="394" as="geometry">
                        <mxRectangle x="-140" y="310" width="110" height="30" as="alternateBounds"/>
                    </mxGeometry>
                </mxCell>
                <mxCell id="321" value="id" style="text;strokeColor=none;fillColor=none;spacingLeft=4;spacingRight=4;overflow=hidden;rotatable=0;points=[[0,0.5],[1,0.5]];portConstraint=eastwest;fontSize=12;" vertex="1" parent="320">
                    <mxGeometry y="30" width="160" height="30" as="geometry"/>
                </mxCell>
                <mxCell id="322" value="full_date" style="text;strokeColor=none;fillColor=none;spacingLeft=4;spacingRight=4;overflow=hidden;rotatable=0;points=[[0,0.5],[1,0.5]];portConstraint=eastwest;fontSize=12;" vertex="1" parent="320">
                    <mxGeometry y="60" width="160" height="30" as="geometry"/>
                </mxCell>
                <mxCell id="323" value="year" style="text;strokeColor=none;fillColor=none;spacingLeft=4;spacingRight=4;overflow=hidden;rotatable=0;points=[[0,0.5],[1,0.5]];portConstraint=eastwest;fontSize=12;strokeWidth=1;" vertex="1" parent="320">
                    <mxGeometry y="90" width="160" height="34" as="geometry"/>
                </mxCell>
                <mxCell id="324" value="year_week" style="text;strokeColor=none;fillColor=none;spacingLeft=4;spacingRight=4;overflow=hidden;rotatable=0;points=[[0,0.5],[1,0.5]];portConstraint=eastwest;fontSize=12;strokeWidth=1;" vertex="1" parent="320">
                    <mxGeometry y="124" width="160" height="34" as="geometry"/>
                </mxCell>
                <mxCell id="325" value="year_day" style="text;strokeColor=none;fillColor=none;spacingLeft=4;spacingRight=4;overflow=hidden;rotatable=0;points=[[0,0.5],[1,0.5]];portConstraint=eastwest;fontSize=12;strokeWidth=1;" vertex="1" parent="320">
                    <mxGeometry y="158" width="160" height="32" as="geometry"/>
                </mxCell>
                <mxCell id="326" value="fiscal_year" style="text;strokeColor=none;fillColor=none;spacingLeft=4;spacingRight=4;overflow=hidden;rotatable=0;points=[[0,0.5],[1,0.5]];portConstraint=eastwest;fontSize=12;strokeWidth=1;" vertex="1" parent="320">
                    <mxGeometry y="190" width="160" height="34" as="geometry"/>
                </mxCell>
                <mxCell id="327" value="fiscal_qtr" style="text;strokeColor=none;fillColor=none;spacingLeft=4;spacingRight=4;overflow=hidden;rotatable=0;points=[[0,0.5],[1,0.5]];portConstraint=eastwest;fontSize=12;strokeWidth=1;" vertex="1" parent="320">
                    <mxGeometry y="224" width="160" height="34" as="geometry"/>
                </mxCell>
                <mxCell id="328" value="month" style="text;strokeColor=none;fillColor=none;spacingLeft=4;spacingRight=4;overflow=hidden;rotatable=0;points=[[0,0.5],[1,0.5]];portConstraint=eastwest;fontSize=12;strokeWidth=1;" vertex="1" parent="320">
                    <mxGeometry y="258" width="160" height="34" as="geometry"/>
                </mxCell>
                <mxCell id="329" value="month_name" style="text;strokeColor=none;fillColor=none;spacingLeft=4;spacingRight=4;overflow=hidden;rotatable=0;points=[[0,0.5],[1,0.5]];portConstraint=eastwest;fontSize=12;strokeWidth=1;" vertex="1" parent="320">
                    <mxGeometry y="292" width="160" height="34" as="geometry"/>
                </mxCell>
                <mxCell id="330" value="week_day" style="text;strokeColor=none;fillColor=none;spacingLeft=4;spacingRight=4;overflow=hidden;rotatable=0;points=[[0,0.5],[1,0.5]];portConstraint=eastwest;fontSize=12;strokeWidth=1;" vertex="1" parent="320">
                    <mxGeometry y="326" width="160" height="34" as="geometry"/>
                </mxCell>
                <mxCell id="331" value="day_name" style="text;strokeColor=none;fillColor=none;spacingLeft=4;spacingRight=4;overflow=hidden;rotatable=0;points=[[0,0.5],[1,0.5]];portConstraint=eastwest;fontSize=12;strokeWidth=1;" vertex="1" parent="320">
                    <mxGeometry y="360" width="160" height="34" as="geometry"/>
                </mxCell>
            </root>
        </mxGraphModel>
    </diagram>
</mxfile>